<svg width="1920" height="1080" viewBox="0 0 1920 1080" xmlns="http://www.w3.org/2000/svg"><rect width="1920" height="1080" fill="#3d1053"/><path d="M1920,1080C1600.1666666666667,1092.8333333333333,296,1083.3333333333333,0,1080C-296,1076.6666666666667,96,1066.3333333333333,144,1060C192,1053.6666666666667,239.5,1049.3333333333333,288,1042C336.5,1034.6666666666667,385.1666666666667,1023.1666666666666,435,1016C484.8333333333333,1008.8333333333334,536.6666666666666,999.5,587,999C637.3333333333334,998.5,687.6666666666666,1034.8333333333333,737,1013C786.3333333333334,991.1666666666666,833.8333333333334,871,883,868C932.1666666666666,865,983.3333333333334,963.8333333333334,1032,995C1080.6666666666667,1026.1666666666667,1126.3333333333333,1070.6666666666667,1175,1055C1223.6666666666667,1039.3333333333333,1274.3333333333333,913,1324,901C1373.6666666666667,889,1423.6666666666667,972.5,1473,983C1522.3333333333333,993.5,1571.1666666666667,982,1620,964C1668.8333333333333,946,1716.1666666666667,868.5,1766,875C1815.8333333333333,881.5,1893.3333333333333,968.8333333333334,1919,1003C1944.6666666666667,1037.1666666666667,2239.8333333333335,1067.1666666666667,1920,1080C1600.1666666666667,1092.8333333333333,296,1083.3333333333333,0,1080" fill="#df6688"/></svg>